<?xml version="1.0" encoding="UTF-8"?>
<!DOCTYPE svg PUBLIC "-//W3C//DTD SVG 1.1//EN" "http://www.w3.org/Graphics/SVG/1.1/DTD/svg11.dtd">
<svg xmlns="http://www.w3.org/2000/svg" version="1.1" width="607px" height="157px" style="shape-rendering:geometricPrecision; text-rendering:geometricPrecision; image-rendering:optimizeQuality; fill-rule:evenodd; clip-rule:evenodd" xmlns:xlink="http://www.w3.org/1999/xlink">
<g><path style="opacity:1" fill="#141311" d="M -0.5,-0.5 C 201.833,-0.5 404.167,-0.5 606.5,-0.5C 606.5,51.8333 606.5,104.167 606.5,156.5C 404.167,156.5 201.833,156.5 -0.5,156.5C -0.5,104.167 -0.5,51.8333 -0.5,-0.5 Z"/></g>
<g><path style="opacity:1" fill="#46220f" d="M 13.5,9.5 C 23.992,8.34121 34.6586,8.17455 45.5,9C 44.255,9.79142 42.9217,10.2914 41.5,10.5C 32.3483,9.50644 23.015,9.17311 13.5,9.5 Z"/></g>
<g><path style="opacity:1" fill="#45220f" d="M 138.5,9.5 C 119.659,9.16976 100.993,9.5031 82.5,10.5C 81.0783,10.2914 79.745,9.79142 78.5,9C 98.6709,8.17085 118.671,8.33752 138.5,9.5 Z"/></g>
<g><path style="opacity:1" fill="#da4f0a" d="M 13.5,9.5 C 23.015,9.17311 32.3483,9.50644 41.5,10.5C 24.8198,17.0138 13.3198,28.6805 7,45.5C 6.33333,34.8333 6.33333,24.1667 7,13.5C 8.31159,10.7615 10.4783,9.4282 13.5,9.5 Z"/></g>
<g><path style="opacity:1" fill="#db500a" d="M 53.5,9.5 C 82.8947,7.34673 103.228,19.6801 114.5,46.5C 111.658,56.3621 106.658,64.8621 99.5,72C 96.7782,70.9297 94.6115,71.763 93,74.5C 91.6924,76.6414 90.1924,78.6414 88.5,80.5C 89.2752,82.4753 90.6086,83.3087 92.5,83C 95.5,80.8333 98.5,78.6667 101.5,76.5C 100.674,75.549 100.508,74.549 101,73.5C 104,70.5 107,67.5 110,64.5C 112,59.8333 114,55.1667 116,50.5C 121.553,84.2372 108.386,107.071 76.5,119C 41.7581,124.558 18.9248,110.724 8,77.5C 3.49262,41.5303 18.6593,18.8636 53.5,9.5 Z"/></g>
<g><path style="opacity:1" fill="#db500a" d="M 82.5,10.5 C 100.993,9.5031 119.659,9.16976 138.5,9.5C 141.561,9.44431 143.728,10.7776 145,13.5C 145.667,57.1667 145.667,100.833 145,144.5C 144.167,146 143,147.167 141.5,148C 97.8333,148.667 54.1667,148.667 10.5,148C 9.33333,146.833 8.16667,145.667 7,144.5C 6.33333,124.167 6.33333,103.833 7,83.5C 18.1469,111.16 38.6469,124.327 68.5,123C 97.6757,117.824 114.842,100.658 120,71.5C 121.193,63.0692 120.359,54.9026 117.5,47C 119.022,43.4547 120.689,39.9547 122.5,36.5C 130.52,35.6533 133.687,31.32 132,23.5C 127.333,18.1667 122.667,18.1667 118,23.5C 116.811,27.7092 117.644,31.3758 120.5,34.5C 119.42,36.9962 118.086,39.3295 116.5,41.5C 108.952,26.9488 97.6182,16.6154 82.5,10.5 Z"/></g>
<g><path style="opacity:1" fill="#d94f0a" d="M 213.5,13.5 C 216.518,13.3354 219.518,13.502 222.5,14C 223.687,15.0195 224.687,16.1861 225.5,17.5C 229.846,18.0098 234.012,19.0098 238,20.5C 238.667,23.1667 238.667,25.8333 238,28.5C 235.173,40.1039 233.673,51.7706 233.5,63.5C 238.244,59.7119 243.077,56.0453 248,52.5C 250.689,36.1644 259.189,23.9977 273.5,16C 278.637,13.753 283.97,13.0863 289.5,14C 291.037,15.1096 291.703,16.6096 291.5,18.5C 295.182,18.3347 298.848,18.5014 302.5,19C 303.333,19.8333 304.167,20.6667 305,21.5C 303.832,32.8462 302.332,44.1796 300.5,55.5C 298.422,63.5974 301.089,66.0974 308.5,63C 310.667,60.8333 312.833,58.6667 315,56.5C 316.185,35.2513 326.685,21.0847 346.5,14C 349.5,13.3333 352.5,13.3333 355.5,14C 357.032,14.6995 358.032,15.8662 358.5,17.5C 362.846,18.0098 367.012,19.0098 371,20.5C 370.301,32.8954 368.801,45.2288 366.5,57.5C 366.936,64.8235 370.269,66.3235 376.5,62C 378.333,60.1667 380.167,58.3333 382,56.5C 383.405,44.6814 385.738,33.0148 389,21.5C 392.749,13.7836 398.415,11.7836 406,15.5C 404.24,24.7339 402.906,34.0672 402,43.5C 406.232,33.6008 412.398,25.1008 420.5,18C 436.635,8.96904 443.468,13.469 441,31.5C 439.176,40.1117 437.676,48.7784 436.5,57.5C 436.344,64.1871 439.344,66.0205 445.5,63C 447.667,60.8333 449.833,58.6667 452,56.5C 452.818,37.0052 461.985,23.1719 479.5,15C 483.761,13.6374 488.095,13.3041 492.5,14C 494.032,14.6995 495.032,15.8662 495.5,17.5C 499.846,18.0098 504.012,19.0098 508,20.5C 508.667,23.5 508.667,26.5 508,29.5C 505.66,39.0348 504.16,48.7014 503.5,58.5C 502.944,61.624 504.111,63.624 507,64.5C 511.619,63.6891 515.285,61.3558 518,57.5C 519.024,39.9413 526.857,26.4413 541.5,17C 547.189,14.0769 553.189,13.0769 559.5,14C 560.743,15.1545 561.743,16.4878 562.5,18C 565.833,18.3333 569.167,18.6667 572.5,19C 575.349,21.5594 576.183,24.7261 575,28.5C 573.882,35.2105 572.548,41.8772 571,48.5C 570.196,53.7513 570.363,58.918 571.5,64C 573.971,64.7063 576.305,64.373 578.5,63C 583.194,58.3063 587.86,53.6396 592.5,49C 595.217,47.967 597.051,48.8003 598,51.5C 598.823,55.7384 598.156,59.7384 596,63.5C 590.323,70.5183 583.489,76.0183 575.5,80C 571.218,80.9651 567.218,80.2984 563.5,78C 560.628,75.4634 558.128,72.6301 556,69.5C 548.696,79.701 539.196,82.5343 527.5,78C 525.316,75.9835 523.316,73.8169 521.5,71.5C 515.788,77.6946 508.788,80.528 500.5,80C 495.694,77.6938 492.027,74.1938 489.5,69.5C 481.522,80.2166 471.522,82.7166 459.5,77C 457.641,75.4422 456.141,73.6089 455,71.5C 447.549,78.5389 438.716,81.3723 428.5,80C 423.133,77.9682 419.967,74.1348 419,68.5C 418.333,65.1667 418.333,61.8333 419,58.5C 420.654,50.8891 421.821,43.2224 422.5,35.5C 421.448,35.3505 420.448,35.5172 419.5,36C 410.837,47.4966 405.004,60.33 402,74.5C 399.116,80.5428 394.616,82.0428 388.5,79C 387.035,76.5704 385.702,74.0704 384.5,71.5C 381.591,74.5771 378.258,77.0771 374.5,79C 369.314,81.2259 364.314,80.8926 359.5,78C 356.798,75.4031 354.464,72.5697 352.5,69.5C 344.568,80.4829 334.568,82.9829 322.5,77C 321.12,75.0748 319.62,73.2415 318,71.5C 310.468,80.4719 301.635,82.3052 291.5,77C 289.273,74.4359 287.439,71.6026 286,68.5C 279.118,79.683 269.618,82.8496 257.5,78C 253.981,75.119 251.314,71.619 249.5,67.5C 242.753,72.2903 235.92,76.9569 229,81.5C 226.218,100.308 220.218,117.975 211,134.5C 204.304,142.954 195.804,145.787 185.5,143C 177.807,138.27 174.974,131.437 177,122.5C 181.66,109.162 189.494,97.9957 200.5,89C 204.548,85.2838 208.882,81.9504 213.5,79C 214.554,77.6124 214.72,76.1124 214,74.5C 206.449,81.4385 198.282,82.2718 189.5,77C 181.117,66.6767 179.284,55.1767 184,42.5C 189.144,27.8538 198.978,18.1872 213.5,13.5 Z"/></g>
<g><path style="opacity:1" fill="#181412" d="M 215.5,27.5 C 217.167,27.5 218.833,27.5 220.5,27.5C 218.993,37.5474 217.159,47.5474 215,57.5C 213.333,61.6656 210.499,64.6656 206.5,66.5C 203.312,66.1439 201.145,64.4772 200,61.5C 198.456,46.9309 203.623,35.5976 215.5,27.5 Z"/></g>
<g><path style="opacity:1" fill="#161411" d="M 282.5,27.5 C 284.167,27.5 285.833,27.5 287.5,27.5C 285.656,37.8884 283.489,48.2218 281,58.5C 277.943,66.732 273.277,68.0653 267,62.5C 264.601,47.3119 269.767,35.6452 282.5,27.5 Z"/></g>
<g><path style="opacity:1" fill="#181412" d="M 351.5,26.5 C 352.675,26.281 353.675,26.6143 354.5,27.5C 352.319,38.2391 349.819,48.9058 347,59.5C 343.102,67.8243 338.435,68.491 333,61.5C 331.371,45.4129 337.537,33.7463 351.5,26.5 Z"/></g>
<g><path style="opacity:1" fill="#181412" d="M 488.5,26.5 C 489.675,26.281 490.675,26.6143 491.5,27.5C 489.319,38.2391 486.819,48.9058 484,59.5C 482.071,63.8037 478.904,65.9703 474.5,66C 470.463,63.9253 468.796,60.592 469.5,56C 469.995,42.1276 476.328,32.2943 488.5,26.5 Z"/></g>
<g><path style="opacity:1" fill="#161411" d="M 552.5,27.5 C 554.167,27.5 555.833,27.5 557.5,27.5C 555.999,39.5112 553.165,51.1779 549,62.5C 544.491,67.9943 540.491,67.661 537,61.5C 534.92,46.6708 540.087,35.3374 552.5,27.5 Z"/></g>
<g><path style="opacity:1" fill="#1a1511" d="M 56.5,41.5 C 76.6955,40.8608 86.1955,50.5275 85,70.5C 80.335,84.0871 70.835,89.9204 56.5,88C 39.944,81.0053 35.1107,69.172 42,52.5C 45.8568,47.4678 50.6901,43.8011 56.5,41.5 Z"/></g>
<g><path style="opacity:1" fill="#d94f0a" d="M 56.5,48.5 C 73.6833,47.8413 80.5167,55.8413 77,72.5C 71.5146,80.7521 64.0146,83.2521 54.5,80C 45.2861,73.7723 43.1194,65.6056 48,55.5C 50.4412,52.5464 53.2745,50.2131 56.5,48.5 Z"/></g>
<g><path style="opacity:1" fill="#201712" d="M 60.5,62.5 C 61.8333,62.5 63.1667,62.5 64.5,62.5C 64.5,64.1667 64.5,65.8333 64.5,67.5C 60.7146,67.411 59.3813,65.7443 60.5,62.5 Z"/></g>
<g><path style="opacity:1" fill="#191511" d="M 208.5,96.5 C 209.376,96.3691 210.043,96.7025 210.5,97.5C 208.375,107.67 204.875,117.337 200,126.5C 195.151,132.327 191.984,131.661 190.5,124.5C 190.942,119.283 192.776,114.616 196,110.5C 200.003,105.665 204.17,100.998 208.5,96.5 Z"/></g>
<g><path style="opacity:1" fill="#211711" d="M 123.5,116.5 C 138.786,116.929 143.953,124.263 139,138.5C 131.333,146.5 123.667,146.5 116,138.5C 111.399,128.709 113.899,121.375 123.5,116.5 Z"/></g>
<g><path style="opacity:1" fill="#d64e0a" d="M 123.5,119.5 C 134.897,119.058 139.73,124.391 138,135.5C 130.583,143.713 123.583,143.379 117,134.5C 116.333,131.5 116.333,128.5 117,125.5C 119.063,123.266 121.229,121.266 123.5,119.5 Z"/></g>
<g><path style="opacity:1" fill="#1a1512" d="M 15.5,133.5 C 21.4992,133.002 23.6659,135.669 22,141.5C 19.1816,145.424 16.1816,145.424 13,141.5C 11.8366,138.029 12.6699,135.362 15.5,133.5 Z"/></g>
<g><path style="opacity:1" fill="#1a1512" d="M 31.5,133.5 C 37.9886,132.632 40.4886,135.299 39,141.5C 35.8184,145.424 32.8184,145.424 30,141.5C 29.1093,138.502 29.6093,135.836 31.5,133.5 Z"/></g>
<g><path style="opacity:1" fill="#1e1612" d="M 48.5,133.5 C 54.9886,132.632 57.4886,135.299 56,141.5C 52.6667,145.5 49.3333,145.5 46,141.5C 44.8366,138.029 45.6699,135.362 48.5,133.5 Z"/></g>
</svg>
